<svg xmlns="http://www.w3.org/2000/svg" width="1080" height="568" fill="none"><mask id="a" width="991" height="519" x="90" y="49" maskUnits="userSpaceOnUse" style="mask-type:alpha"><path fill="#000" d="M1080 49.951H586.559L90.053 567.462H1080V49.952Z"/></mask><g mask="url(#a)"><path fill="#fff" d="M281.073 272.806h28.81c13.031 0 23.746 2.625 32.145 7.874 8.461 5.188 14.729 12.383 18.805 21.585 4.077 9.202 6.115 19.732 6.115 31.589 0 11.92-2.038 22.481-6.115 31.683-4.076 9.202-10.313 16.427-18.712 21.677-8.399 5.249-19.145 7.874-32.238 7.874h-28.81V272.806Zm15.748 14.452v93.378h11.765c9.634 0 17.508-2.007 23.622-6.021 6.115-4.014 10.623-9.511 13.526-16.49 2.964-7.04 4.477-15.069 4.539-24.085 0-9.079-1.452-17.107-4.354-24.086-2.903-7.04-7.442-12.568-13.618-16.582-6.176-4.076-14.081-6.114-23.715-6.114h-11.765Zm90.379-14.452h72.258v14.359h-56.602v39.649h55.49v13.988h-55.49v39.927h56.602v14.359H387.2V272.806Zm135.324-2.223c7.04 0 13.092.803 18.157 2.409 5.126 1.605 9.14 3.304 12.043 5.095 2.964 1.791 4.724 2.964 5.28 3.52l-8.152 13.062c-.927-.803-2.563-1.946-4.91-3.428-2.347-1.544-5.28-2.902-8.801-4.076-3.52-1.235-7.534-1.853-12.042-1.853-6.979 0-12.507 1.421-16.583 4.262-4.014 2.779-6.021 6.731-6.021 11.857 0 3.459 1.05 6.516 3.15 9.171 2.161 2.594 5.187 4.972 9.078 7.134 3.891 2.161 8.43 4.384 13.618 6.669a123.12 123.12 0 0 1 12.506 6.114c4.138 2.286 7.874 4.972 11.209 8.06 3.397 3.088 6.083 6.67 8.06 10.746 2.038 4.076 3.057 8.77 3.057 14.081 0 5.249-1.081 9.974-3.243 14.173-2.1 4.2-5.095 7.782-8.986 10.746-3.829 2.903-8.306 5.126-13.432 6.67-5.126 1.544-10.653 2.316-16.582 2.316-7.473 0-14.235-.926-20.288-2.779-5.99-1.853-10.838-3.798-14.544-5.836-3.644-2.038-5.743-3.304-6.299-3.798l8.615-13.618c.741.618 2.1 1.544 4.076 2.779 1.976 1.174 4.416 2.409 7.318 3.706 2.903 1.297 6.176 2.408 9.82 3.335 3.644.864 7.535 1.297 11.672 1.297 8.276 0 14.544-1.853 18.806-5.559 4.261-3.705 6.392-8.461 6.392-14.266 0-4.447-1.359-8.276-4.076-11.487-2.718-3.211-6.33-6.083-10.839-8.615-4.508-2.532-9.48-4.972-14.915-7.319-5.558-2.532-10.653-5.311-15.285-8.337s-8.368-6.639-11.209-10.839c-2.779-4.261-4.169-9.387-4.169-15.377 0-5.929 1.668-11.148 5.003-15.656 3.397-4.509 7.936-8.029 13.618-10.561 5.743-2.532 12.042-3.798 18.898-3.798Zm61.2 2.223h15.933v122.282h-15.933V272.806Zm94.935 55.861h61.696v6.67c0 8.522-1.482 16.551-4.446 24.085-2.965 7.473-7.164 14.05-12.599 19.732-5.373 5.682-11.703 10.129-18.991 13.34-7.287 3.211-15.285 4.817-23.993 4.817-8.893 0-17.045-1.636-24.456-4.91-7.411-3.335-13.834-7.905-19.269-13.71-5.435-5.867-9.634-12.63-12.599-20.288-2.964-7.658-4.446-15.841-4.446-24.549 0-8.646 1.482-16.798 4.446-24.456 2.965-7.658 7.164-14.39 12.599-20.195 5.435-5.805 11.858-10.344 19.269-13.618 7.411-3.335 15.563-5.002 24.456-5.002 6.052 0 11.58.679 16.582 2.038 5.064 1.297 9.604 3.15 13.618 5.558 4.076 2.347 7.689 5.034 10.838 8.06 3.15 2.964 5.867 6.114 8.153 9.449l-14.359 7.689c-3.706-5.126-8.461-9.357-14.266-12.692-5.806-3.335-12.661-5.002-20.566-5.002-6.423 0-12.352 1.266-17.786 3.798a43.848 43.848 0 0 0-14.174 10.468c-3.953 4.447-7.01 9.573-9.171 15.378-2.162 5.805-3.242 11.981-3.242 18.527 0 6.547 1.08 12.754 3.242 18.621 2.161 5.805 5.218 10.962 9.171 15.47a43.848 43.848 0 0 0 14.174 10.468c5.434 2.532 11.363 3.798 17.786 3.798 6.114 0 11.703-1.05 16.767-3.149 5.065-2.1 9.48-5.003 13.248-8.708 3.767-3.706 6.731-8.029 8.893-12.97 2.161-4.94 3.366-10.251 3.613-15.933h-44.188v-12.784Zm94.999-40.853 1.019.185v107.089h-15.841V272.806h22.326l63.457 106.997-1.019.185V272.806h15.841v122.282H836.93l-63.272-107.274Zm-455.16 154.992h16.49l45.207 122.282h-16.953l-10.561-29.459h-51.877l-10.746 29.459h-16.952l45.392-122.282Zm-12.599 78.557h41.78l-20.751-59.103h-.278l-20.751 59.103Zm125.435-80.78c7.04 0 13.092.803 18.157 2.409 5.125 1.605 9.14 3.304 12.042 5.095 2.965 1.791 4.725 2.964 5.281 3.52l-8.152 13.062c-.927-.803-2.563-1.946-4.91-3.428-2.347-1.544-5.28-2.902-8.801-4.076-3.52-1.235-7.534-1.853-12.043-1.853-6.978 0-12.506 1.421-16.582 4.262-4.014 2.779-6.021 6.731-6.021 11.857 0 3.459 1.05 6.516 3.149 9.171 2.162 2.594 5.188 4.972 9.079 7.134 3.891 2.161 8.43 4.384 13.618 6.669a123.12 123.12 0 0 1 12.506 6.114c4.138 2.286 7.874 4.972 11.209 8.06 3.397 3.088 6.083 6.67 8.059 10.746 2.038 4.076 3.057 8.77 3.057 14.081 0 5.249-1.08 9.974-3.242 14.173-2.1 4.2-5.095 7.782-8.986 10.746-3.829 2.903-8.306 5.126-13.432 6.67-5.126 1.544-10.653 2.316-16.582 2.316-7.473 0-14.236-.926-20.288-2.779-5.99-1.853-10.839-3.798-14.544-5.836-3.644-2.038-5.744-3.304-6.299-3.798l8.615-13.618c.741.618 2.1 1.544 4.076 2.779 1.976 1.174 4.416 2.409 7.318 3.706 2.903 1.297 6.176 2.408 9.82 3.335 3.644.864 7.534 1.297 11.672 1.297 8.276 0 14.544-1.853 18.806-5.559 4.261-3.705 6.392-8.461 6.392-14.266 0-4.447-1.359-8.276-4.076-11.487-2.718-3.211-6.331-6.083-10.839-8.615s-9.48-4.972-14.915-7.319c-5.558-2.532-10.653-5.311-15.285-8.337s-8.368-6.639-11.209-10.839c-2.779-4.261-4.169-9.387-4.169-15.377 0-5.929 1.668-11.148 5.003-15.656 3.396-4.509 7.936-8.029 13.617-10.561 5.744-2.532 12.043-3.798 18.899-3.798Zm97.884 0c7.041 0 13.093.803 18.157 2.409 5.126 1.605 9.14 3.304 12.043 5.095 2.964 1.791 4.725 2.964 5.28 3.52l-8.152 13.062c-.926-.803-2.563-1.946-4.91-3.428-2.346-1.544-5.28-2.902-8.8-4.076-3.52-1.235-7.535-1.853-12.043-1.853-6.979 0-12.506 1.421-16.582 4.262-4.014 2.779-6.022 6.731-6.022 11.857 0 3.459 1.05 6.516 3.15 9.171 2.162 2.594 5.188 4.972 9.079 7.134 3.89 2.161 8.43 4.384 13.617 6.669a123.017 123.017 0 0 1 12.506 6.114c4.138 2.286 7.875 4.972 11.21 8.06 3.396 3.088 6.083 6.67 8.059 10.746 2.038 4.076 3.057 8.77 3.057 14.081 0 5.249-1.081 9.974-3.242 14.173-2.1 4.2-5.095 7.782-8.986 10.746-3.829 2.903-8.307 5.126-13.433 6.67-5.125 1.544-10.653 2.316-16.582 2.316-7.472 0-14.235-.926-20.287-2.779-5.991-1.853-10.839-3.798-14.544-5.836-3.644-2.038-5.744-3.304-6.3-3.798l8.616-13.618c.741.618 2.099 1.544 4.076 2.779 1.976 1.174 4.415 2.409 7.318 3.706 2.903 1.297 6.176 2.408 9.82 3.335 3.643.864 7.534 1.297 11.672 1.297 8.275 0 14.544-1.853 18.805-5.559 4.262-3.705 6.392-8.461 6.392-14.266 0-4.447-1.358-8.276-4.076-11.487-2.717-3.211-6.33-6.083-10.838-8.615-4.509-2.532-9.48-4.972-14.915-7.319-5.558-2.532-10.653-5.311-15.285-8.337s-8.368-6.639-11.209-10.839c-2.779-4.261-4.169-9.387-4.169-15.377 0-5.929 1.667-11.148 5.002-15.656 3.397-4.509 7.936-8.029 13.618-10.561 5.744-2.532 12.043-3.798 18.898-3.798Zm59.903 2.223h72.258v14.359h-56.602v39.649h55.49v13.988h-55.49v39.927h56.602v14.359h-72.258V442.806Zm207.951 0v122.282h-15.748v-88.284l.834-13.525-3.335 14.915-29.459 79.946h-15.656l-29.458-79.946-3.243-14.915.741 13.525v88.284h-15.841V442.806h21.122l33.349 95.973 1.112 6.207 1.204-6.207 33.442-95.973h20.936Zm25.903 0h33.998c6.67 0 12.938.896 18.805 2.687 5.867 1.791 10.623 4.817 14.266 9.078 3.644 4.262 5.466 10.19 5.466 17.787 0 5.126-1.019 9.788-3.057 13.988-1.976 4.138-4.447 7.504-7.411 10.097-2.964 2.594-5.898 4.138-8.801 4.632 2.347.186 4.941.927 7.782 2.224 2.903 1.297 5.651 3.149 8.245 5.558 2.655 2.408 4.817 5.435 6.484 9.078 1.73 3.582 2.594 7.844 2.594 12.784 0 6.67-1.358 12.599-4.076 17.787-2.717 5.187-6.855 9.264-12.413 12.228-5.497 2.903-12.475 4.354-20.936 4.354h-40.946V442.806Zm15.748 109.035h23.623c5.867 0 10.406-1.019 13.617-3.057 3.274-2.1 5.559-4.817 6.856-8.152 1.358-3.335 2.038-6.886 2.038-10.654 0-6.237-2.038-11.271-6.114-15.1-4.076-3.829-9.974-5.743-17.694-5.743h-22.326v42.706Zm0-55.675h20.473c4.694 0 8.554-1.019 11.58-3.058 3.026-2.099 5.28-4.755 6.762-7.966 1.483-3.274 2.224-6.639 2.224-10.098 0-7.102-2.1-12.043-6.3-14.822-4.138-2.779-9.696-4.169-16.674-4.169h-18.065v40.113Zm82.86-53.36h15.841v107.923h48.079v14.359h-63.92V442.806Zm100.237 78.279-41.041-78.279h19.083l29.918 59.844 29.83-59.844h19.09l-40.95 78.279v44.003h-15.93v-44.003Z"/></g><path fill="#fff" d="M0 4.251A4.251 4.251 0 0 1 4.251 0h538.64c3.765 0 5.672 4.534 3.038 7.225L424.516 131.278a4.252 4.252 0 0 1-3.038 1.277H4.251A4.251 4.251 0 0 1 0 128.304V4.251ZM208.464 206.893a4.251 4.251 0 0 1 4.251-4.251h131.918c3.761 0 5.67 4.525 3.045 7.218L215.76 345.232c-2.662 2.732-7.296.847-7.296-2.967V206.893ZM0 206.893a4.251 4.251 0 0 1 4.251-4.251H134.38a4.251 4.251 0 0 1 4.251 4.251v215.71a4.246 4.246 0 0 1-1.205 2.964L7.298 559.289C4.638 562.023 0 560.14 0 556.324V206.893Z"/></svg>